<svg xmlns="http://www.w3.org/2000/svg" version="1.1" xmlns:xlink="http://www.w3.org/1999/xlink" xmlns:svgjs="http://svgjs.dev/svgjs" width="100%" height="100%" viewBox="0 0 1000 600"><rect width="1000" height="600" x="0" y="0" fill="#ffffff"/><g><rect width="333.3333333333333" height="333.3333333333333" rx="13.333333333333334" ry="13.333333333333334" y="113.28985819588601" fill="#00856f" transform="matrix(1.3726063166699283,0,0,1.3726063166699285,0,-84.270085289222)" x="91.067626953125"/><path d="M242.19858143605342 354.95652786148344L196.12715425945458 354.95652786148344L196.12715425945458 204.95653240278952L242.19858143605342 204.95653240278952Q281.84143737870824 204.95653240278952 300.59143681104496 225.10534131658628Q319.3414362433817 245.25415023038306 319.3414362433817 280.3731967861884L319.3414362433817 280.3731967861884Q319.3414362433817 314.8970052647767 300.59143681104496 334.92676656313006Q281.84143737870824 354.95652786148344 242.19858143605342 354.95652786148344L242.19858143605342 354.95652786148344ZM214.13310609527002 219.9565319486589L214.13310609527002 339.95652831561404L241.75215287814063 339.95652831561404Q263.62715221586683 339.95652831561404 276.57358039533744 332.7839094851487Q289.5497704786689 325.61129065468333 295.11524650064825 312.2184339173Q300.68072252262755 298.8255771799166 300.68072252262755 280.3731967861884L300.68072252262755 280.3731967861884Q300.68072252262755 261.53391164226906 295.11524650064825 248.02200728944229Q289.5497704786689 234.53986484047635 276.57358039533744 227.24819839456762Q263.62715221586683 219.9565319486589 241.75215287814063 219.9565319486589L241.75215287814063 219.9565319486589L214.13310609527002 219.9565319486589Z " fill="#ffffff" transform="matrix(1.3726063166699283,0,0,1.3726063166699285,0,-84.270085289222)"/><path d="M576.9495673955039 354.95653373430207L576.9495673955039 354.95653373430207Q555.6237803122652 354.95653373430207 540.1690601183393 345.54555886760966Q524.7431196640669 336.10580426126387 516.2530964662863 319.2120970846631Q507.73429352885216 302.347169647716 507.73429352885216 279.9565321972981L507.73429352885216 279.9565321972981Q507.73429352885216 257.79613266410814 516.2530964662863 240.90242548750746Q524.7431196640669 224.00871831090683 540.1690601183393 214.4826244856005Q555.6237803122652 204.95653066029416 576.9495673955039 204.95653066029416L576.9495673955039 204.95653066029416Q601.8152624561222 204.95653066029416 617.4714408276227 216.87134287684046Q633.0988394594697 228.78615509338675 637.4733598868006 250.1119421766254L637.4733598868006 250.1119421766254L618.19093431896 250.1119421766254Q614.8812642588082 236.64302401879047 604.6068972025112 228.4695779571983Q594.3613098858675 220.2673521559527 576.9495673955039 220.2673521559527L576.9495673955039 220.2673521559527Q561.4085079826175 220.2673521559527 549.8102729022596 227.43350732967255Q538.2120378219017 234.57088276373892 531.8804950981332 247.95346170261337Q525.5777321140181 261.30726090183435 525.5777321140181 279.9565321972981L525.5777321140181 279.9565321972981Q525.5777321140181 298.6058034927618 531.8804950981332 311.9596026919828Q538.2120378219017 325.34218163085734 549.8102729022596 332.4795570649237Q561.4085079826175 339.64571223864357 576.9495673955039 339.64571223864357L576.9495673955039 339.64571223864357Q594.3613098858675 339.64571223864357 604.6068972025112 331.64494461497236Q614.8812642588082 323.67295673095464 618.19093431896 310.40549675069417L618.19093431896 310.40549675069417L637.4733598868006 310.40549675069417Q633.0988394594697 331.3571472184374 617.4714408276227 343.1568404763698Q601.8152624561222 354.95653373430207 576.9495673955039 354.95653373430207Z " fill="#00856f" transform="matrix(1.3726063166699283,0,0,1.3726063166699285,0,-84.270085289222)"/></g></svg>